<mxfile host="Electron" modified="2023-07-06T13:12:22.707Z" agent="Mozilla/5.0 (Windows NT 10.0; Win64; x64) AppleWebKit/537.36 (KHTML, like Gecko) draw.io/21.5.0 Chrome/112.0.5615.204 Electron/24.5.1 Safari/537.36" etag="zcTRkO9nd65yf5qvRssA" version="21.5.0" type="device">
  <diagram name="Page-1" id="2IndvUlFl4mmlSNOiNMn">
    <mxGraphModel dx="2549" dy="640" grid="1" gridSize="10" guides="1" tooltips="1" connect="1" arrows="1" fold="1" page="1" pageScale="1" pageWidth="1100" pageHeight="850" math="0" shadow="0">
      <root>
        <mxCell id="0" />
        <mxCell id="1" parent="0" />
        <mxCell id="qq4ja0ooshDvs5njouxr-1" value="" style="shape=image;imageAspect=0;aspect=fixed;verticalLabelPosition=bottom;verticalAlign=top;image=data:image/png,iVBORw0KGgoAAAANSUhEUgAAAWgAAAFoBAMAAACIy3zmAAAAGFBMVEUAn+Pv7+////8Bjt85sejJ6fZsxe2d2PJb7J3wAAAgAElEQVR42sycSXPiuhaA1SXH2TauQLZtV4CtqkRztyQQ2Ca8AFsThmzJAPn7T0eywYOsydDdqrqVZvL9OByd2UKRWGFDrNoPm4vDdjQaoAk8XI/G2+/vWSM8x5VPD9HZrhUE0eyb8XoeGiCEfHj1if0Ded5o/Lb/F6HDxuKwZgJGBInlPbNXOuLfBAH3LPjHoJtMxii/luyV9iB9hBEave2f/yHo5mJ9lPCR8gpeirNPUTTeN/4R6HCxxqi8fHjtq/Ts/vlfgF7ESL7gxQ4pPe3tg78NzRSjan3klDqzmJL8Tej2YVTJjLhSf8pe8d6e/x60ZP9l1nWUWurSIuN98Jeg5wOkWt70ZKmLC3ub4G9AN9dIvTAodVj58mT656FvB0i3HkuWOv9LvP9p6IOeWVjqnwr92fxR6OaXATPqKZQ6sSJTN+jkb7KZI6OHzYPKamTCD60aCcU2/f+mD12gm1/IbP2Aj8bIhPri0GtDZhZTs6X5htfBn4Buxsh4QXB0q9Ekf3p56ObanJkrdVO3Zzn1RaGtmNEVfHane9d4ello4z0o1n/w2Sft29huvCS0HTNzeuyzHf37JsEFoS2ZEQboyOCNk8tBt5DtmsBnTczN5lLQc2tmsNRB9GLyzk14EejuwB6698w+2zFV//NDt2PksJbss22jb+u/XwD6xYWZhR9BFMWm+n9u6LkTM1PqwPT7kkdjaMNA9nbgBo0CdqkWMbPqH+dNApquzOiVXapr6oumZ4X+cmVGP+BSpnt4ck7oFnaGvoZLPZm+e3M+6LazckCdml3G2JUKa30W6J07Mw8/Gk0bF3oe6Baqs3gsZO6YHs8DXUc5Utk9ITsFqQ39VYsZwo9G4878/eNzQC9wPWiD6kfeMW7qQ7vFSbnmi776UbI3NaFfUN1lUv0o7sV60DV3IV9wIcPwQ6z3mtC7+sxcqa0yCL8edOcMzLz60VjZfGJTp2oaxueA/k9Tp5aI+rlGEjA/B7Oy+aIwe47Q59iFafMlsvdIbtAm5s7E9WiaL9XVGwdoI0GbmDK/uqPoVFFQQUsdAsaUZEDpdmjYfLGMFSdu0DJBY0oxcNMjz8wAGr3CnNDAXtT20BKNpsQbbbfb0QDTNLBom0BDm7xhp9R44gJdFjSmvbdnYVYOA8p1hH4YQUObXF9cl5SJbaG/yszjtIEG+Tlm1LgfGUHf20s6qbjaQZcEjclbEJ1WOGfU9JVBE2Kk07blHsxEbQv9omZm1AeM++ypT0p11D345I1DdmkJXRI0nUyj/GIaAl5jsd3G57fTIhuwhC7KBffS1mqz2UzLITR57o4YeESHkODRDrq0a8hrohPrAfJGb5y2nXyRUGcX+DSTQ9DSn1pVTTulRI8/fTugTIPZf94eWgMJ9As9Z5GpmD6YJwGxVDnmzKeQxMtMjtDdIdF3ExtPDszYt4Eu1mb5jovmw5NIaW8TdfoiRKEmRSO3dGJpAf0kE3RXMFNMMafef/KUpIt1Fg+iiFvHmqs5dNHe4Wu+3YCZqTQRhpl6GBxd+Kn1LQ1XlUZijsEMuuhYKGz/G85Mxt/77/WA/7vPvt5Mqxyi7uGa1T+aQpfS2T5IH7Yb9ZOAac2ETR+YaujdIbp3V+nE8phAS7ch2LVTxNT+IixYilYsVD13LU+2FQ2giz8lOL72ijALlInydnQZdehm1tRFebZVU5nV00MXg03cA29D2d9lJvL4ZPbuE17RbUTf1UpnMhg99I1MOxganmSYu6DRsBWjGzU05lvJvRbBP6+HLu4ZFjRHIU7SU5brzWAzgpA/CfkAfL2VbiL35ZlAd2W5dIsk4Uc3ZgbD++iwbwIaA5Z6eJHA4+SylgbQJfUDHfgf4dsRvCLBzK+swHRQSLd0Sm3XRzyldgRnvKIOupxmMXcYrgRfO6ZCCtx0DAgiUFpUQt+H9laaIY/3L/j0W+mqpi0k2YddjPADhEyJK4E867M/J9xX3imVehlYx9KUeCzr76bQ+FWbBOxk5cMO4VlACF6RUL43u/SR7U5Q6q6ynAdX7hArOaPxe87yXuugy3UgsBAvBIFJblGxQcByf7K0YkVgdyqLCL60GqGxN8LpDk+lYg30jbQQtyPYT4x1bx/ccEEzT/NEeMFcBW0xWZMKGi4Z5mTxoIEuR2MQ6a+4ZsNlyDsIGUzHlCe08JVWRBU6BLYTWwx6MQmysvDV0JKiI4MOh7AbwI3wXQmmA4PL6WBE+O+gstJBZBl49PaHIQTwq0KoVwndkX5xJmIqNBsUHKIOoc3dIX/ii6gCjwC0yEo/RlwiUUzy0W0ldNkL4N/cPgAck2g/jTrSL4PFl1HE8IF1xYPSXhTus9D/qaBlJekrDg26GxOImUCjwQn2udqB2lRD81nT0N6F30edq6zWJbMrcmiJdoAadAQ0244bLugO3WJeSWHPLFXQoIyBfeDBftbd75zWLRXQu0poQORyvWM2etXvHr8Gg54TVcXDYH5aYvSGv3Oy8MNK6FDWsPiRh/7VZ4Je5qCr+95uFQ8eQV7loIX9kELLGpRF6LvebNWfdswk7RRL88CG+nmtW1ZC/0QmOj2iG4ile+JrKHXaev6AC/oharP/4SxjPcTQiBw6rmjy5KzHijKpM19oYD2sJz3SlJRFuzjfofSqqqbSHzJnpyGoDr+n3OblnI58Pdh3apFoiaBSK3hakQS8VIUC7WEa68GfkKeMJh7x1WFUHOQiqx3fV0DLS1cg3FzsEXF8SAo0sQdvtdhWPMhSFLNkXT0JdEVLNRfl4R4Eu7crkTImUV5MztdqoZOKIj3MX0igK6qxyRa8TuJpf9+YxUlK+0SSr3S2VgsUlaWC5kGOBPql0qeCOvSTzIWSEfSYefGAxXq/FZmLQ6uFWVMQBaaU0rIIytBVo3NpjggIPNfiyS3oMmzHx+oc0X6gBtFrcTkyYIuW91YJumpKgDmUYzZ+k16IPoozA1TZ+LW1SlNfKAd55fOHpCiDMnRVMFaoe/ArUd4sYypOmEr/ItUqHdoMiVHY5VCkFwW4ovl/kEA/KQwn55smPTlC+dW5MVFVmGxVGnpP0QI0kNvKUkhzJYGu9FzwvW9IYqJvB0ynPT4319LU8ipOnagu3m1EGbxK0r4EWuVX+Z5LqqaLb3GOAVRuYHe2qcJKm7daKDCHouwmh0Zl6FtV8sN1gD7m+vk3ibGuqk/fWwUetAc94B1FCujXEvSTMhoAE4F7H9mq+jD5GlUqvbQIPCj13zNt1AroqxK04ofkPRdgzPRc2utkl1e5Fn460J0hsjeewYxRWpOugL4uVk1VM3hcP3h3a/J87G7RpCfaoRUNHqga7nT7kG0LSjGfauDMhJelK6C9aSEJuNVV10DUmI753EjY/AJ7zZ2knMtDm8ig1QLuGs5V4WJgzJg/UQWNXwvQc01KL7whpt7bfrYQs2L0KqrQjjF7Ex/SKJ/OlKfwRqOtsEW8nYp6I7ZwFfRxQjmBVs/si77WSvTGKRLBDOZe8aakHd5b7niD5mGtFkZ0GnAQj3eV0H5B0rEuYEznOjAW2ZuIrKNCGEn85DSuzDhMcxFjRZbAjxjCYuQsELCG0JqZSlqe9yCpV8xLeS8bppsdBlJssKHhDOYDxGWIcACV0KnNTaBb+ticrcMwuTpz5XzgrZ0vTcNRRdIJwFB+9BEefx+2oxSZpbKRWtLoNQetG5pLcsM5j5egk/gmHucE7e2rb6PuxnILDesIp5M0+pGD1sUIONkzbX5WjbedJm2R7HXVg/zKm3xSdp2kr3PQWneL+8dW0iz1MLmMFvtT9d28zbi6Iuxtt9s11kvay0Ib1NvodVRcuaEa/ckRkhMrEgmTjzAMWW5IdJJG0wy0wVgUJpP8rCkzJtlarMEZHbclDfHAmaQe8I5oJZ3sRAFtdMcCectOm7ZzzPwgKO0t6MX5GvI4YytOIH9RrU6LeDeBNko/c3O94QHTQhxqcLBIq5wTnSB/GUj6dwbaLFZnkUd6jNkipqRYljE5DeVF4hHnJK8eKkn7wbFqanoTDhjo8fZ7ux7kxGx2N6+kuWovadExQrLxMEW8B7EjZpFC9oK9d3PoXC4jh1ZJGp2graYECKGFQMLsDvWofDuYvaTx8ghd7+7O1BOaQWc9Yx7aRKfFPTuo7s3smSTZ7FiFVh1Ji+2DXDoMhXjA8vi4XR2d7qfQte7g633YQp9idwdJ84YicjxB56Rk9qcLftXQad5QRNY1ZEnyYQl99OYOkuZTNsihl1MQtP05jl/uOs1HP5DtPbuour1nflJnDUlfJdC7OqbD6ZjPnbtO+wl0jX346gbdcpe0l0DXcIauR9fGmSivdZR0L4WWdgJOQwLI7QalUw/JCTqZtpFL+qdS0hAyIedbUNBx9MzqTNTssBTZiMwl+ctCL/i7Oz5fpZH/J+5cmhPXlQCsc2XMdnAdwhrXAFvfMiFb5wHegiuBLZAQtkBI8vev9bIkW5JtiarrqZqEhMCH3Gp1t1rdoD7mYZiGPVtoulXnkYAjFL+iWufUd9TtMIBmDqIm2G8PPeHeePlrxL8qdR6GXlpLR88e2l5lEWhrNd1xgV46LA3A/rAP2LtAWxd3yn1b0LMu0DbLXKCt39bLcuiB/X1ygQ6spRJBT6ylwwna+rAfuOTQrfPm+G1ygraVD7h3gH4I3aB7X7arQw79aq8v3aAtlR6c59C6DEXv+FJnlbpB22qANATaWXyocXgDV+ietdYCurXlUOOm+6EztOWq5odAHamhhZAGSWRawx3bqlial17uBKhGc8piiiPt7s6jO7RlFMBbAVV4yWPMvXCgu4dnd2jLIJEa2juKZyo/9GapI7SleTo9A8XHlSNd6tPT/i2allnOxBxaqTfqqm3igkPO0Jbr2g6MVcwkDlSURlCMyOEW0O3OKeqhIxYVGK6TRdDT7RDD8y2gLQ3MR/C3pDfonhtuQLRgu+DVRlU3gbYMjJegPXaefbhJ6Ia3+LAc8RAPQfQtoO0KH8JHIC1LR/bSDPIYqCt9d0vB/c3n5/GNylL/DV99VpKxhx4VJ5L7+AH9WzvvpQNe5a2j8m7fvBIJV0D3cTM5j6SEfLyQa1F8YPQoLarhoF+xv11aQi9ljVDxlNNCmWwr0YNQ/ogeLZsYQYBzAvEuP0q9zR9NeSnrCBaVAuysjy44CbJBX0tuAoYyJrAgbgQdIhY44RoRpygKf4w/BckXJh+AbpX4bkWiu+BarN2Mo9y4LGV57ZuPSA6IheViMWlpbe7yJGeaM/VXgrbTeT7YFvYGNXM3FT2UshpfXK4v3EQWHVS/nFnEu4zQY9RLyRa3c14WDJrlRufM1WWqqIVWUAfqbIhUgI6oGBFo2BGSFrkD4TTSRfqJ2jxi6rvQIYIzsqVB24Rq74SEcBM29HSkfSHDyxk6IXojUGQ2VKmZ5vM49ITYT0E+H4kVlRD7ZYjTDXCXkWLbgWV4cWirJRH3nEV+Cu3Yon2RRcDykJAOEaCxdOBs8D5Z2xNAs4NeiVAz6DPfIeLQW1tonGwZmJnzBZ41mkI9Pn0OvQUMMvxlg0f2YgZEzTDoR54s5QydMwfUSd4Yb9aRJbFtXmCXQydcWoY9QTxoXJRDd/gGIoc+WUIXVXHrCjzlBiDNak+6ctZaRwwSFCON8Z8IdEJX/i3+1hn6yMIRtUWpopTFLgaFUidC+lSCBhXoRYJVSz7Pva0IbRkaYzGUJnpe0WjqX24plUdaFI80//6CFxP/dDPo4bqR8llUNg6XgJ+KKI30WJiInS3OmVpHIP26GfS6ocJcrErQJ8Cz3vlI71hRZY+qvPsrXh3z/3fSSN/ZyTRRCI2VfLpqAI0XF/yabHHp3OE1MR/vsyTT7frpMZcQtGMm1KUgYrcCvfj9/UzEZfx+EqHv85+9SdqjRYdIIVwAWhezSxtAFwXAmcH0MEGjnr+R3y9FXIen1swo17StXKXl6mlyIc9E3pch9rSPVMl+jIZctKflPKxmzDh14q610VI0BqSuaVcL3WFOgLfKP91T7gF0qtBtei6ScC5YJ+2nAtV8DNofaqC5u+VlSwK9r0K3oKbuFbAyDncS9Ewz0t4h5NCvAM7zJ2fjKnRTHQKJmWRphTM3hAYBPB10xqFX+WLo5Yt4qILujZpRH3sOrgPoSFsQct8povKuhU1CoXvUvlNCN5uNh+IQZeIGjb3rfRl6RzRfV4ROiCsqQ6/p5+0Nr3WtHaJD0efcDpqX0B0X9r0IPadnBQvofGVckrGXoU/FXarr/IYODhPoH+AKjQOfVFEPBWhyKvMijPRf8oMSdPRyZs2QrsY5WIT6kbqzgvZLWxDkjdcXAXpQ0tO4n40XlKHzB9/s8xskxCtC/Tmz5wx9KgztfpIy6ANt4dwVoEfE6JCht+jQF9soM+iQIgEQmUkesHMthS0IpoxySnzIMaEFVJdUPhg0ql2SlqHRJ8TU5j65O6Zq1jiwaQcNKtF8Ep2Zc/EgpvJOgD5hO1uGpmPA2j9pZmPRsmgtx/JaXkIt61PJQGLQfRqBZNoDxUEuaugipqqcjbm9IR838YFdMP7MocXIZ5QVMk2sVlxJhI70JEY5pBJ0keb6cmbx+avK3gilUJIttBA1FcMAXdGxfSXrDranUe5Q/yOlPdOrUVO4+GY9N0o6BOsN2SXsWkI/CtDch/Au1AmYFxHzfzg0fbYIzY8XQaL5UAD/oyrPshvLg+r20PytD8yamRchBK8MfSdCi2Fin3mf0mw8sDcSjk+lwHKvRso7maBj4RHNXeDBGjzHV0GYJInPRxrZU+xvpTfnXWeuZV0nlz2Qd7darONyskz/9/PzSD2D/mpFduN6eG8u/+0qv/iT33roUaiIihUNXNhYT5muk0Mcc2C3wUQqfQgBJzTDK/GnoDc0Zgf1S/r25RyIms8rQv0Sc3nzs/mVhe45TNVWfj7T18iXyXVdIG/F0usJWGZPXm4BXYkfQtqHIETxkENAn7wpleOwhYa7W0Df6eQO/fabPbnSdHRvO9LpLaBV6tYrC14VcA8seyX4N4BWV0LBcQdjn/PL/xNas7e1uAhPVoRlvAuwzQi+uENrxitanIsnq0JJXgZsmyU8uUNr68YVBSyU4dxpAGwzPufu0H+0usmnTidUSyawTY7z3XOYDO+MdYimzJI/BNanEd2hTYKZ65C1driA9Un3nSu0Odlj8ZNoo/rAuu1rxxX6jzkKZtiKAGHTgwylir+KPhotH1oeZICHHHrSCBrGcanW6PTsBm17xB7uEHSTZ6K2H6wQGhdqJ2jr0+rnHLrJadXYI7XW+h8CddcN+uoEXX+b4PQb1QD7zkhxP6aVVk7QlusDjs83SPhExTv7nwnwFt9SNbGdC/QEukDXry4wDQfvZCIeUM1p2SW3hP5jKx1dfAR7WSscweg59o+/vx8w3gl1vT0X6MQNuraC22P4FR9YXdBMuK8Xe2j7c98dDF3ncE2zccwCEKPnB9QZSpYPG+ilNfQcQ9coatgN34sSbuE6uvCioDQ7xQLa+rAqtnlAbQm3eD+J97w81/OcVxSGB1t72qEOSkbKdNVJx3Im1G/7MxUK3fq20Ft76IBAm2/VQ/j+j9T5bi+U9t7ZQU/smT1aEO1k3gefQLGwcPj8JOiP1A76ag/tU2jjTIb7cSzV9vt6EMtkn22g7YtzEI0F6kptxtnrVILOHwpLeWoD7VIW7IlCm88FhqhDn3DdRUGpe1BbaKdiVQzaGGTKx/VBgh7HF6HGCUzbQ79GDtAXCm3S9HAWPnck6IkEDfT91xv3jG+lPDJWTtGkNWfDMjTcS25lty30yYEZd7Mg0IaXgQ+jKrR0JM/btYN2qmRGAp+gpkIonFWg4ydppHl322bQWxdmstlX1+0ZphXxiPelOuqHNtBrJ2ayAwFqjNvpJXy/L0FnQ7mQupw/bYYeOAkHNeGB2VBEJZy//itDR2E5VtJtDn1yYybGMMmN+tIv4rlF9iRBj55RY5eKYd7Mnr5zYwazFW9uoLU+kK102svQW0WTjobnhAeOzOBe6MigtT5QreytDD1UQfuNDuxPtq7QHQF6YhKPU0k8kqp4kByCOujRhyszTXIFcoaLNTTKYK+BHl6dmWkaEjAXzcL97f4jaw9PCV3sEOuDd5Ezsyd1GTmZoEt6eqqEBoD1qldD928wziwfEAinSJUR7HyWluxp1EtK2VrEv+ihB9sbMLPEXBAaXXp0tGwcZZK7NdMWMXjB5/tV0D8vt2BmyeYgDI0H/KdZuI5lx/Y+HOr6tOAuJ1Xot5/kJsw0s67onLPVGky/iQQ9et6PfvTdmBffvTJ0f/MBb8M87TWDBnEcwb3sjL/GJj2w+F2J0MObIfMTE6BB+TpiD4aDM1rDp9kI1umuxfEXQ/dRBxFwu+tQGmlTzCfGWXhjGB2vyfQcnqJmCjVce0mjLbPSpX15eC5BGxsrYS/gK81Xh8V3ePfcLPLdyz9dVLMt8qK6oGHjQu4GZay594APZ2ejj2OGu1A2i07Ut1U6vqku7crpB6V2P8ZmxCgbd/JAptVz3NTBqLWdZ0Gouka6oe5UoI1CnauPyT0pA9OIedakDgb8J1RfX5qh3lWgQ/NmALaTvuLpTyOrp9ukTArca6D/aN5jVYXe1sjHe3qdfmf/NoLehQ2KLWuhNV0ivV4VelkjH3c4VtCss+SlSTy3LXRHAW3aBomRNvg5BvpOqvI0z5qUdol37cTjUQFtjAvuC8ujaeC7vohOy5EWIp1CF2yDUEdPraAf67o/2UzEWU8F/WqW6RbQWaO9IJhu8uvt+zv/L6gf6VQJbUixga2gvfZhmUVWN9LogL8C2iDUxUg36ktr1tJqKymtG2lvpYQ2rAa8J2ATywNPAO0tUVlJSRxdakb6QdOOXquk4LSQuWXcTEtrRTpO3zb4n3httmLrVuVIzzXQI+0NnQvWTO1Qz0zuPS2zX74m8axmpMUNS7Gzu8aWhLHY2+wO1o21PzSEdGGqVnPv/GYqR9oTgxMStHI9iKNUGpzcOI3qnaLE7LpVrpNwB1Qj3dFCj1XD7B3lG4o81bjOzx+0XVGWQmdf1UjvtdDVHQEY/6+5c/lNmwkCONIa+1pbJZw9atqrJaL0ar6Px7VYJb2WNIVrQQ38+2XXCQ97d3ZmdyFxTpGi8GPYHeY9k+fWC/SeME8gzrDMtRkalfRr37wGunUSRTHR3pstQq2WEX/zgdZIOgEz9E2TeWwwD/pm6mHe7m/ylvQCgT7PPYlDvZVGR/1vuo1VniLD5R0lXSHQ5+djMAbz0zdQR/JfPXTCSvorINDZx7MweYVAqw3TWsMjxxJvbpIeYtBn+qPYYMxgGE39n/xXZWBJVyj0SUGCSAB/9Eu75cKzfiespGPAoT9RBQ16J1emCbD6IidJDy3QR6P63sYMunBCcr7iLoikD63wJuiDUS3GVmiNqyPUHIEyLHSc2qA/06FvC60tnfc7ftDfikayqgVt2qNhvYegazZRTtFHT+iGd9TeDNIxrqQoVjvLo9F5XVsAlgDdjJq2l2x0jCsphFrSjf0M9E4RGvEwQ697Lx91UxaPBOjjNZLvuEB+DLnrvkuEZn+O6wP5qxi0fRY7tEdRpcpdPxRO0EIoP6BlPo5J0B41aIm1HAyRdEcFP5oximJDgnbfaVUPZCpdoYUKg+vMfwK0e6HR2tpXgUGrNFpT0gsitPtKrNRW2GyB3ov6l845JEA7X8XEXsSGQsuoSEPSXaBC99yY623PpQ/03aYBXZGhXUv+1vY3jEPvFUip8cJp0G5XUVX6fbd9GoYI04uAC23ahATtpvUSQn+TyXh8PRVCm1imQd+4ammb5hF3eit3YM5HaqD1dWm3LqImpVrE6wD/7OTp6Z3ke8P6dQN07qD1IjCPAjj9Xq4n1P2NypNHL+hxzoN2+IIhJcSlyZuoIv1BcfpopVAxoVN+7d8QTbWclweQynPGwIXm23prYieZqmkgFGNFGzY0W9QRdWmZhKYIOgE+NLd6P8mBtgpnD/2FkCOrJyozobmiVtGJDwUJmiLoLrhAM0Wt4kCUNlQxJp3oygmaK+oFMXcuYkol9RTcoHkKpK7eI32T0lSHGzRT1BFQ+yNJOtoVmtmElwEQR5xYn7vKGZrZaPUInl2dJ1lfcIfusYy9uiQ1BHNc4dB4w9UDT1N7DTk4VUQ4lQWa5cJE9rAH8d1nftAchtobDwC9AT9oVgxk6hdUO1F3ntAcb+A+9Qu6Hr/APaE5ak8dat+Ww+I3+ENzPu9h6jVvRD1qw5c3NMPa6/of6ogwMZUAzTilUlNnf31vYRBohuxmLxOm3VU0hIKmH5AF38zSHI4g0HQN0rV1n9AMpSDQ5HMqNXX2wV1zVCGhyR/52tJ9YtHzWUho+FySD3UGrtAL4tSNDnVMFU3vCbWr3E1Ty9A1bXgWGZroMMbyj90O9WFhbkBoWmuvWsHgMoSrrk0LDU1c3vYo90uXLpcQLgFN0taiK//4p6uGDg9Noo7ot7ZtclwCmnQZs9zBpp7C5aApMxgWOdumFtPZBaHxlU0v5of8Y170YzJLLwkNt9Yu8DjnRj+OO4ouBG3PMLKjHxFpCosXtJW67u5mMl8a2jonN2E5O/EsvQa07TbGDL+ymMzS60DDF5T6jh79KKYzl5G5VHu64RNsy8ISpyY1Lk5m7FGMHCeg+SsyZoSefFll6VWhseXkMS35ohYxXRca+5ohJV/qVRFXhgbz5mx78kVEq1n6FtCQ756Q5MsfLI84eZ6lbwMN+fxJK8+vlkMthwilbwUtl6trByzh1UyjZ4C3hDbshH9Epk5Ev91eKCT03uLflkLniPzUn4wM3gN0mvWaE1b0mnp//1ZzrxcKCQ0w/7EcnRQXqNT2TSOJP1ru5t4vFBJa9gtvR8dLKZv0j47i/ntmNFnWk7DeFbSk/LF9GkUHTf1qU0fRaLJ6zvI8fY/Q6pf5bqoCT7YAAAAXSURBVLkclWpt43e5KXay2tXnOOAL/QO/uHFFPrrCOAAAAABJRU5ErkJggg==;" parent="1" vertex="1">
          <mxGeometry x="-11" y="125" width="138" height="138" as="geometry" />
        </mxCell>
        <mxCell id="qq4ja0ooshDvs5njouxr-2" value="" style="endArrow=none;html=1;rounded=0;strokeWidth=3;" parent="1" edge="1">
          <mxGeometry width="50" height="50" relative="1" as="geometry">
            <mxPoint x="280" y="690" as="sourcePoint" />
            <mxPoint x="280" y="40" as="targetPoint" />
          </mxGeometry>
        </mxCell>
        <mxCell id="qq4ja0ooshDvs5njouxr-4" value="Sources layer" style="text;html=1;strokeColor=none;fillColor=none;align=center;verticalAlign=middle;whiteSpace=wrap;rounded=0;fontSize=20;fontStyle=1" parent="1" vertex="1">
          <mxGeometry x="40" y="40" width="200" height="30" as="geometry" />
        </mxCell>
        <mxCell id="qq4ja0ooshDvs5njouxr-5" value="" style="shape=image;imageAspect=0;aspect=fixed;verticalLabelPosition=bottom;verticalAlign=top;image=data:image/png,iVBORw0KGgoAAAANSUhEUgAAAMgAAADICAYAAACtWK6eAAAABHNCSVQICAgIfAhkiAAAAAlwSFlzAAALEwAACxMBAJqcGAAAG8tJREFUeJztnXmYXUWVwH+dhQS7IYFACBCwZVeJYkYREJVlAB0VHQYFxeWhiBsw6MjooI6OC6AmAUU/kUUfi0AwqMygAiNBFAVXghEJS+ARkGAWlqwknXT7x3nPvH5dp+6+vNvn9331QerVrTr39j23qk6dOgWGYRiGYRhGyvQULUAHBwOXA1sVLYiRmI3A6o70KHB/My0Cni5MupCUSUEOBm4GtilaECM3lgK3A/ObaXGx4pSXg4FVwJClUZ0awPnAyzD+gSmHJVf6E3AWsBOjGFMOS0FpPfANYDdGGaYclqKkjcBlwB7kSFGT9CgT8l8Bl2YrzqhjAvAxYJ+E9TyDWKQeAJaxxVq1pvl7H/I33gaYCuzbTJMStLkBOK+ZnktQT2mJ2nPUC5Gyuvwz8kJH/YJvAn6LvJhHIy98XHYCjgG+DPwO2BxDnoeA1yWQoZTEGVbVixC0gjwPuIjoSnEzcBLJvvpBTAbeCdxCdGWpA70ZypYbcecc9QJkrRovBe4j/DN/FLEg7VKArLsCnwAeiyDvX4D9C5A1NcIoxwYlv56/uJXiRGAd4V60B4CTgfGFSDqcrYBTkKFUGNnXAe8tRNKEhFGOq4Arld/quUtcDXqAcwj3cj0JvAcYU4ikfsYiL/4ywt3LuWk2Pi7NyhyEsVZ9D/njXBax7j7geOW3eWyxpLRzKLBXxHaKRLuPIMYilr9aQLlB4FvAp4BnY7TTYkdgd2TiPgmxkg0io4JngeXAEmBFjLo3A98Bfoi8/O/Hr8ifbMrzgea1pSVszzG2Wb6ulKkr9fd76u1XrtHaKGvS7sPHVsjLFFT3g8DLY9Q/CXgzMBv4BfBUhPt5GvG9+mqzjjh+d69EfLaC2roBmBij/lyIqhxgCpKGgowDfhCi3muI9nJOQuYDPwMGUry/jcD/N+veNqI880LUfwPD37FSEEc5wBQkqYL0IM816IX8YIQ6ZyDDm7CT/CRpDXAx8MII8p1GsMKWapE5rnKAKUhSBTk3oK41hF9Y2x8Zpg0WcM+DwPeB/ULK+kaCFfickHVlShLlAFOQJAry7oB6ViBj9yC2RxYTN5Xg3geArxNu6HUIwXOhk0PUM4K0rFhhrFXzgc+ie2X2RWxzE7Kgpf3mYoXnmjKi3Uc7M5GhicZK4LXAvQH1HIdYtJK4kAwgE/HnEEvTRGSVPM57Ng44vSnXqcBPPGV/DbwGMRpsp5T5JuLW8ucYsiQia6/cem530n304ferWgMcFFDH1sAlnjq0tATZHv0hxHy+E27n1x5gGvAq4MPAFURbJW+lrxG8gHkI/uHWX8jZLeUlZO+yXs/rZrqQOvpz20i4OcdsTx0upfgS8ndPygHIvOmvEdq/A1nj8PEG/BP3y1OQPTQ1jyCmINnyOvzPLay1ahLBflq/Bf6NbEymY4G3An8IkKGVFgN7B9R5WkAduXkB1wIEMQXJhl5k/7b2zK6JWN/euCe5DwJvSUXiYHoQz4iHHXJ0pqXAiwLq+77n+ofIaRGx5hHCFCQ7fCbdB4i3Qn0UW6xXA8AXEJeRvNkaWWkPcntfit9taFv8K+6fy0T6DmoeAUxBsmF3ZJ+261ltJp77SIt/R+YZByeUMQ0OQ5TA924sxj8neSW6oq0HXpCN6FuoKY0/jtjw00g7ZCN6ZsxChj+daVZK9V+B/sJ8w3PdxKYMQesKUVw+2pmO+74bzd/isDPwe/xK8kv81q1ve67NfJW9pjTcyLrhElMnu55wb/Qv4pPImoPGxc1y95GNR3O/ItcQ8ZwuW/Qi/lo+JZnjuX57xJvYdd1GMo6WUlMabmTZaMmpk52CtF5yV3qP57rjOso+hexNT5N+j2z9CeuegGzH1eofxG+Zep/n2gsTyualpjTayLLRklMnGwXZCVmhdtX9APoeie2R3qXzmk3AGQllaqdfkS0NBQHpSXzDrcfQjRPj0Cfs6/F4D5RxB5nh5mR0q9J5yFfUxTm4oxOOBT5O/DlH3qwFjgX+pvw+Hfi88tsmJIKKi4mIL1sm1LAepJM62fQgmkvJo+iT1P3R5ywDpGut6lfaSasHaXE4/nvaV7luK8R45LruT1pjWW+5LRunIH5DndxBdIvGLNwWNlf9rfy6I38F8iX3cSj66vE3kBfDxRfRRwlfBu4MaFeT5RRHvs/ZNM0AhbcBFyCB7zoZh/QiJzh+24g8K9ee9RlI5Jd7UpLxH9Torh6kTnpf94ZSV9TUCNHW+cq1mxBTqIsZ6Ps5HiL+ImBNqdOXngDOJL0P8vOQntPV1iD6XpLp6L3PbNcFNgfpDjR3j1uRxTQXH0X/cp+FBFTIi50RJb8DXaGjsA6JneWiB7l3F48jPZCL41yZpiDlZwb6GP4KJX8SEg/Lxe+R3YJF8Epkz0aSPSct5qIPiU5Ct2hpz6wfx8q6KUj5OUzJ3wzcqPz2VsSnycV5SQVKyF7A1SnUM4R+L73oIaFuRLf4HdGZYQpSfl6j5P8RPZaVa5IKMsT4UWKJknMkosRJmYc+xNSewVPoPc8IBSmTFUsL6vYQMnaNwvG4rSqai8VeuIOsrUH+CFH4FSKzq41XRawLzzXzlfxt0XudK8kumNpahj+rPsRDWFtn+Rjikp6ETcg9/afjt8ObMrgC783HfczbaxPKM4Ia6Vmx6kpd9Rh1NZS60rQwaW3UlPK1GG3s6JHtaOWaYz3XvNTTVlhqSt0NRf7feOSZloI8Mz31v0m55vWea4ZFsbchVrnxRSxfoOS/Wsl/nAzs/AEsx+8jdkAKbfwRMSO70NaktGcHHQuNZRpiGSPRds09gwRzdvEKJV8zb0ZlKGL5RYjVbHvHb2kN934OvMORf6BSfilyEpbL0rUvssUYMAUpO7sr+Q94rpmh5N+VUJYW2rFnOyAuL65VfecaQ4rciVtBtGcBcnSca3PZsB7EhljlRjvA5n4lfwruLzXAwuTiAOIV66IXCQFUBJov1RT0PTLaM+xv/0cRPch0pV3Nl6cP90LZJmRcHYWVuK0afcjDLBvaqrM2vHq+py6t19H+HitwP6t7EPOy60i2OYjM1yDPehm6n5iPPtx+btrf3GU1bNGPe86hPcM4+/lVaqRn/ek2C1MebfxOueazSvljlPID6G4nUe8DJEphmL/RRmRo91GivXg1pb6GUr4HPVzqUco1/6OUH2Y+tyFWudFC06xW8rWDNp8m+uTax3nIukcQ4xH3kjnIV15b3U7KEGK4cKENsbRnOEyRTUHKjeYuop06pXnopn2e+GNIBJQoTEUWBj+Vsiwt1iv52jPRFGTYwqYpyOggi7nmZcCnY1z3RbI5bFPrIRPtRTEFKTeaS7pm0IhaPilfQoZN2jZYja8TPxSQxvOUfK331OZEq9r/YQpSbqL+cTXnxT7S3dXXzvWIn9mZyHpEGKtVL3LYZlqMQZ9raM9Ee4bDhl5lWig8C7dj4PFIKMrRyFNKvvbHXa7k9wC74jaRHopu5g3LGuR4gq8165qKrMe8A3EkdAW9PglRKtcZKPOQ1fFOtPNSdlbaAL136zoFWYHbjBfn6OCqoNnqtQ1HSzx17YtbQaKuJQWxCfGNegI4G3lBL3CUm4w4T/7B8dsaoh1/7QuEpx2YpD1DG2J1EdpeBy1yxwp0c2eUwzHT5FvIFlkXe6TUhub0uBz9eWjPcJhCmYKUG82tQ/vjgu52oXm2RuVoZPjTma5Xym9EH/ppE+uoaOGL1HA+6M9wmAtKmYZYxkg095BJSDA41/j6t7h3IR6ekkzj0DcW7Yvu4+QiDcNBD/oGsd8p+bugz0GGyW89SLnxHbypDSu03ZdTce+ii4pvL8UVBB+RljYvxx05EiTyuwvfPpRF7f+wHiR9TsH9RYsTUf1JZBLtWjM4AjlZuJP5iKnVFW3xXcDdMeRo5wmkl3LttTgQGRb+jOGT3SyPsHibkr8BuF35bcTe8yaP0zFJNwVJn1cRb++5xm/QFcTFauTFcEVvb5ldwxwv7WMOcK3y2zbAvyasPyzjEaV3MR/dX+xIJX+EQtkQq/z8Qsmfib44dp2SvxP6FzcK1yFB64rmbejDK+0ZTEHfmz8iEIYpSPm5RckfA7xR+W0uumn1bJJPjoeQ3ujBhPUkoQd9Nd4XjeaN6Pc/QulNQcrPIvTFLi1s/yr04GwvJp1eZBliLft1CnXF4UT0oBZXoi80akEkHsHxnE1BuoMfKPlHom/LnYPu4TqbdBwYn0SU5HTSX5H30YseVXEQ98o9yHFrhym/OZ/xaJuk+44miMo89OMP9nTkL8Ztgg3jSnMd7oDMY5BJqutwmPuQxTvXJqVdkR11/xGi7SA2I8cK3Ih8hV1cj/uL7tsq6+ML6AEtrkNfP3on+vDq8piyeKlRzq2qWhtpbuvVqCt11WPU1Y52gM4S5HAYFy9ETL6u6wbRg8/FoV9pZ4h8D9DRzlGZAPxVuU5d27EhVvdwsZK/G/pc5D7EF8pFD3AV+hCtjExG5lbae/t1dMPByej3eqXWoClI91BH3x/ySXR370+jRx7cEfgx3XNO4TPImYuudZzHgM8p141DP09kPfqRCKYgXcQK9GHanujWmVXA+z31HgDcQPwTp/LmQuTI5/a9MkPIPWr7zN+LPsy7BN2Z0hSky/gqerjO84DtlN9+ggw/NA4DbqJ7epJbEbeWlq/aBbjdbkAWBs9RftsIfMXXUJmsWDvg1vI4fjyayXEHxETYyVrc1qQ4pssVuNct0tj49TDSi7zP8duOyIugRTf8OOLYd4jy+2GIq8Ub0IdkPjahr9fEdW2ZjL6fYzHi5v4JxCKn8WX0oICXIxP31HkF8sW6F7Mw5c10ZJXcdR+bkThUGlMRJfM912VIALqiOQJZZzk9QR2HoB9kuo50rWuAnAq0QGnQFCQ/voD+XBajB5ADMYMu9VzfMgGfT8phOEPS22y79WJvwu14GcRkZF1Gu8fPpCFsiz2R7jeNl7cRoR5TEDdbI4qgPZugk5teTLCSDCHDj7eTXUSUdnoQ/64lDjlWEn27wA8d9bTS/aRolPgXJHRKWi9vI2JdpiButDi8rXRawPV7EzzcaqV7kVXoLOas45t1LwyQ4S+ENyKcGVCXFq83Miegr8SaghTPRejPZwDd27fFVMT9Jewzb0Uo+SeS9So9iBVqFjLPCNv+uSHqPhY9kPUQEhEyFQ5HzGBpv7yNmHWagoykFxkuaM9oHXpAgxbjkTF/1Oe/DPF7Oh35Iu+Oe9lgDOL7dRgSz/daoilFK52Pe5dkO4eiGzCGkF5Ki3cciVZAAJ/Ag4hZL+rLOx2xHnSmeUpd85TycUJXtkzJnSmtLaG9yILd1cjW1sXN/16NuIO4TMxJmYGYqbW/01P4zzps8XrErJ3kozWIOCUuReYSK/B/zcOkJYSzqr2kea9aPWtIMfTRtQFC394UqKb83ojRZl2pqx7zHvKkBxnzr8T/3JYDH8yg/bcHtLuS4J4EZIx/AfGG1WmnAcQtP4wl7VC2HPGgJc1fLTIHBjQ0iy1daU0p04jRbl2pqx6jrjyZiN9i4krzSN+143MBba5FDC5h2A8ZPmlrCFmmzcD30L1yO3kz4k/lq/PzIesKxfc9DV3YUbamlGvEaLeu1FWPUVde9BBdOdqVJG2+E9DmAMHWrXb2Q7yI1wTUm0ZahewrCasYsCW2r6/eb0eoL5Dt0CfmCxg5SaopZRsx2q4rddVj1JUXp5HspUh7uDWW4OHxEPIRjOJ3tQ3i8HczEk4nLaVYj2y0ijo/m0y4D9MP0L2cY+Eby7o219SUso0YbdeVuuox6sqDXoLnHEFpOemF32wxDhkeBbW9GL9bikYf8CbEx+k2ZCIe9n6XITGzzkE8cuPc+yH4V8jblSPxMLZz4UeL5/QIenSNtLgUd8j7uNsys+Z49COXVyNDk/uQVetTcX8hd0DOEL8qRbk2IR+6Z/C7ue+BBFy4BPgvZJIbhjXA/zVTi8mINXDH5v9PQIafzyGLzH9DLJ6a42EYpiBK+V6C12AuBj6M7vkcm1txa6O2K62mlG+kLVgJuRr3va9ClKKdGYjSuMqnqRydfJZwE+1liIdwqsORlBiHfGDC9lSpTsg70bxzz1DK15TyjSyFLAl34773WUp5bTHujxnLeTzhJ9mLkZdR2+OeJxOQOVqY4dQQco+pmXI1NN+ck5XyNaV8I2M5y4D2rFx7NUBi9movZZb0IEOpsPOEIWT76idJ/xzBMOyGDPm0AAuu9GcyOv+k0zVA22E4lEXjXY62vbNzeNVCW83WjllLizMIt0jYznTE7+lRZFL9bvT5VhpMQTwQ5iMf13MIH0ziO8ja3X2ZSNZBA7eG1pTyNaV8I1Mpy8H30Lv6GR1lX4ruDnJJhjLu5Wk3atqMDAdnIW4pOyeQaxdk0XI2MlSNsyB5Pyl65WqUacttt/FjZP9CJ73IkOZSZE63P2JN0kyauyFrEquU3+PSg3xdtXYXIQ6GYU2tY5DzRV7GloBzq5B4XfcjE/3VbQlk/aSVpiIH7OxLso1Y65Ee5ivIml2uNLAeJCz9pOeK8SDpHG7Tzhme9lYhyjGdaOsYRaYNyKp4f4rPKDINTEHCMA0Z86b5AjyH2O7TYE/8Q6tT28o2Ur6PtNM65HjpIgwGI2hgChJEFsrRnuaSLPxOD/7t0Z0Lvo0M7yVJWgB8jPyPdPPSwBTER9bK0UpJhlxhhlbtNJSy5wJfyul+W+lhxAjwkpj3njkNTEE0wihH0Jzkb4iNXwtE3Z7iDLmChlYfcFzTUMrW2srsDXwEcXKMsxtQS48hngS+yIeFYlascExDHPP285RZiARdOxQxg85gi3XqXuCniAPdesSt+2LkEBiNCcA3kfM3tLCa2yMWoaebv/usVj8jvuv3g830TURxvusosx45T3F7xJK3Gbn3llVrFbKucn9bejamPIXRwHqQTsL0HH8i3lj5gwRv9mkNuVpHF78aiUbeuSXat0XaNbRq0VCuqSnla0r5Rvjb7h6sB/ETtuc4Ek8AZA8XAXch7um+jUJ7NcvdBbxWKTPVc/1ZyN5uIyIWvFona+VosQAJozM3oNwEdOXwkWRoNeoxBXGTl3K0WI3MRz6MLIilSZQttkYHpiAjyVs52vkWcBDpbhLTPLGNEJiCDKdI5WixAJhJ8JArLGcicc6MGIwmBekM6vYwcA/ilfsuZAtq0crRojXk8oXJvAfZG74XEvpmoVJuAm6nSiMGDapn8gsb1C0oxTXlJuFHiiwPM9IdZRL63+9/PW1o19SU8jWlfCPsTXUTVe9BJiKLcxeSbMNPXj1HJ/so+Zcy0j3+2Wa+i6hHBxhNqqwgPcA1wFsS1lOUcoC+N1yTRcsPCvpsKFRZQT5CdysH6OcaHqHkH6nkFyV/11NVBenFf7BjGAaRbaFFvlx3K/knMNJ8ewpyRJ6LrCOnVJaqKkhQULfZyAt1PuL96mIMeiC9vLhByW9tp70b8YZdgH9vu1aPEUBVfbG08yRWIxE+7m3L+y6yh7zPUf4NpLceEYebEVm1SCkHsMWJUWMh4m5ixKCqPYgWI+lihisHyAukWX86o5PkzRBioh6Mef0gMhcbSk2iUUZVFUTbsqrFTupUmqB68uTnyCarOJwF/DI9UUYfVVUQLYRO1KBuZdnQ8xVkK+1AyPIbEcfHOZlJNEqoqoJoPcWpuIO6aVHQtZ6lCC5E3OJ/ij5kGkLidc1EDzhuRKCqk/SbkCMAOoka1O2mTKSLz0LE9Lw7cl7Lixi+rfcWZJ+3kRJVVZDrEVOu6/TaPsTDNYjlyClGZWQJumHBSJGqDrHWAp9JWMfZSNAyYxRTVQUB2e99fcxr52JfaINqKwjASURXkrnIvhHDqLyCbEDcTj6E7vjXYjkyYT+R9PeFG11KVSfpnVwEXIEcmPk6Rlp/bkIm5DbnMIYxWhQE5OW/imwPzTQqRtWHWIaRCFMQw/BgCmIYHkxBDMODKYhheMjKijWdisZJqiClOPuvrGSlIGOB52dUt2Hkhg2xDMODKYhheDAFMQwPpiCG4SHpJP0O7ICWqnJH0QKUgaQK8hDpnoZkGKXChliG4cEUxDA8mIIYhgdTEMPwULUdhXsArylaiJjcDjxStBDGcKqkIPsgp9TuUrQgMXkcOByzCpaKqgyxul05QLxqb8MO3CwVVVCQKihHC1OSktHtClIl5WhhSlIiullBqqgcLUxJSkLYSfoOQH+GckRlKhLozaccK9AP6CwLvbgj0MMWJTmOch3jrMk7Kmggh7B0e7oV/cyPMtGLHLFW9PNKIzVSfTIloZuHWBrzgTfRHWFE1yIn6d5etCCGm6opSDcpRwtTkhJTJQXpRuVoYUpSUqqiIN2sHC1MSUpIFRSkCsrRwpSkZIQ1854FzMtSkAQsxX/gzbXAQY78C5qpk4Oa10ThROAuR/6ZuA8Mvat5jYu1wDHAzhFlyIvjga8WLURehFWQFXSvGW8a7iB2k5XyE5XyPiYq+ZOVuhoB9W0IUaYogk7qqhRVGGIZRmZ0KsgmpdzYrAUxugZt1DGQqxQ50akga5Ryo9q9wBjGjkr+6lylyIlOBVmilHtZ1oIYXcNMJf/RXKXIic7uciFiMu3kGGQi+lzmEqXPeUDdkb9AKb+I6MHwFin5P8I92X4yYv1lYWvgaOW3P+cpSFEche6M9qEC5TLKwWno78cRBcqVG1sBK3E/gGWIm7kxOpmGmHi1d2N8caLlyxz0r8Tt6DZ/o7psjcTq1d6LUbNwCLArsB6/klhPMnqYhl851jXLjCr+G//mmOXInMR6k+qyNTLn0IZVrXR2UQLmQY+SvxXy1XhFwPXPArcAdyNKoy00Gt3BOGSdYyZirdo2oPydSKC+yv7dNQUB2B34NTLkMoxOHgMOQQLeVRafL9YS5Cvy15xkMbqHx5F3o9LKEZbdgN9QfFAAS+VId2Jnq49gPPAZxGJR9B/IUjFpHTIhHzXrHXHYBZhNsGXDUnXSMmSdY9SZcsE/SfcxHrFeHA7sj0zot6E8X5fpuF30V6J7LGdNHzDFkb+Z8ozlBxCv3EcR36rbgF9SUVf20UwD99ewVpxI1BzyDFHenYMGtqPQMLyYghiGB1MQw/BgCmIYHkxBDMNDXDNvGTgAOAEJ9LYLMKHtt242825A3HvuAuYC92QvmlEl9gR+SvELaHmlG4EXpPLkjMpzFLCK4l/avNMzwJEpPD+jwhyMf6dj1dM64MDET9GoJL2I+0PRL2nR6WFkp5+RE91ixTod8fca7bwAeRZGTnSLFesR9FN27wCuozqhL7cB3o4MKV0sxo6HNtrYB33IcRndo+RR6AG+i37fpiDGP3gz7pdkANiuQLmyZgpyj657P7ZAuUYV3TAHmaTkPwE8nacgObMSOT3LhXb4j5Ey3aAgmoxDuUpRDINKfjf83SqBPWjD8BD2jMIy0kexOwTzoK9oAUY73awgUxBLj2Fkhg2xDMODKYhheDAFMQwPpiCG4aEbJulrqOgJqgkoalekYRiGYRiGYSTl72DXS1rUs2J+AAAAAElFTkSuQmCC;" parent="1" vertex="1">
          <mxGeometry x="-11" y="315" width="138" height="138" as="geometry" />
        </mxCell>
        <mxCell id="qq4ja0ooshDvs5njouxr-6" value="" style="image;sketch=0;aspect=fixed;html=1;points=[];align=center;fontSize=12;image=img/lib/mscae/Database_General.svg;" parent="1" vertex="1">
          <mxGeometry x="-19" y="505" width="38" height="50" as="geometry" />
        </mxCell>
        <mxCell id="qq4ja0ooshDvs5njouxr-9" value="" style="sketch=0;pointerEvents=1;shadow=0;dashed=0;html=1;strokeColor=none;fillColor=#505050;labelPosition=center;verticalLabelPosition=bottom;verticalAlign=top;outlineConnect=0;align=center;shape=mxgraph.office.concepts.video_form;" parent="1" vertex="1">
          <mxGeometry x="149" y="506" width="58" height="49" as="geometry" />
        </mxCell>
        <mxCell id="qq4ja0ooshDvs5njouxr-10" value="" style="sketch=0;pointerEvents=1;shadow=0;dashed=0;html=1;strokeColor=none;fillColor=#505050;labelPosition=center;verticalLabelPosition=bottom;verticalAlign=top;outlineConnect=0;align=center;shape=mxgraph.office.concepts.documents;" parent="1" vertex="1">
          <mxGeometry x="69" y="501" width="46" height="54" as="geometry" />
        </mxCell>
        <mxCell id="qq4ja0ooshDvs5njouxr-13" value="" style="shape=mxgraph.signs.animals.fish_hatchery;html=1;pointerEvents=1;fillColor=#000000;strokeColor=none;verticalLabelPosition=bottom;verticalAlign=top;align=center;sketch=0;" parent="1" vertex="1">
          <mxGeometry x="30" y="605" width="97" height="85" as="geometry" />
        </mxCell>
        <mxCell id="ylWSoLD5zjmZtmUcnuAS-2" value="" style="sketch=0;shadow=0;dashed=0;html=1;strokeColor=none;labelPosition=center;verticalLabelPosition=bottom;verticalAlign=top;outlineConnect=0;align=center;shape=mxgraph.office.databases.database_mini_1;fillColor=#7FBA42;" vertex="1" parent="1">
          <mxGeometry x="320" y="120" width="280" height="257" as="geometry" />
        </mxCell>
        <mxCell id="ylWSoLD5zjmZtmUcnuAS-3" value="" style="endArrow=none;html=1;rounded=0;strokeWidth=3;" edge="1" parent="1">
          <mxGeometry width="50" height="50" relative="1" as="geometry">
            <mxPoint x="640" y="690" as="sourcePoint" />
            <mxPoint x="640" y="40" as="targetPoint" />
          </mxGeometry>
        </mxCell>
        <mxCell id="ylWSoLD5zjmZtmUcnuAS-4" value="Images" style="text;html=1;strokeColor=none;fillColor=none;align=center;verticalAlign=middle;whiteSpace=wrap;rounded=0;fontSize=15;fontStyle=1" vertex="1" parent="1">
          <mxGeometry x="48.5" y="695" width="60" height="30" as="geometry" />
        </mxCell>
        <mxCell id="ylWSoLD5zjmZtmUcnuAS-5" value="Video files" style="text;html=1;strokeColor=none;fillColor=none;align=center;verticalAlign=middle;whiteSpace=wrap;rounded=0;fontSize=15;fontStyle=1" vertex="1" parent="1">
          <mxGeometry x="147" y="565" width="60" height="30" as="geometry" />
        </mxCell>
        <mxCell id="ylWSoLD5zjmZtmUcnuAS-6" value="Text files" style="text;html=1;strokeColor=none;fillColor=none;align=center;verticalAlign=middle;whiteSpace=wrap;rounded=0;fontSize=15;fontStyle=1" vertex="1" parent="1">
          <mxGeometry x="62" y="565" width="60" height="30" as="geometry" />
        </mxCell>
        <mxCell id="ylWSoLD5zjmZtmUcnuAS-7" value="CRM system" style="text;html=1;strokeColor=none;fillColor=none;align=center;verticalAlign=middle;whiteSpace=wrap;rounded=0;fontSize=15;fontStyle=1" vertex="1" parent="1">
          <mxGeometry x="149" y="174" width="60" height="30" as="geometry" />
        </mxCell>
        <mxCell id="ylWSoLD5zjmZtmUcnuAS-8" value="Databases" style="text;html=1;strokeColor=none;fillColor=none;align=center;verticalAlign=middle;whiteSpace=wrap;rounded=0;fontSize=15;fontStyle=1" vertex="1" parent="1">
          <mxGeometry x="-30" y="565" width="60" height="30" as="geometry" />
        </mxCell>
        <mxCell id="ylWSoLD5zjmZtmUcnuAS-9" value="Accounting system" style="text;html=1;strokeColor=none;fillColor=none;align=center;verticalAlign=middle;whiteSpace=wrap;rounded=0;fontSize=15;fontStyle=1" vertex="1" parent="1">
          <mxGeometry x="147" y="358.5" width="60" height="30" as="geometry" />
        </mxCell>
        <mxCell id="ylWSoLD5zjmZtmUcnuAS-10" value="Data storage layer" style="text;html=1;strokeColor=none;fillColor=none;align=center;verticalAlign=middle;whiteSpace=wrap;rounded=0;fontSize=20;fontStyle=1" vertex="1" parent="1">
          <mxGeometry x="320" y="40" width="240" height="30" as="geometry" />
        </mxCell>
        <mxCell id="ylWSoLD5zjmZtmUcnuAS-11" value="&lt;b&gt;Business layer&lt;/b&gt;" style="text;html=1;strokeColor=none;fillColor=none;align=center;verticalAlign=middle;whiteSpace=wrap;rounded=0;fontSize=20;" vertex="1" parent="1">
          <mxGeometry x="680" y="40" width="200" height="30" as="geometry" />
        </mxCell>
        <mxCell id="ylWSoLD5zjmZtmUcnuAS-59" style="edgeStyle=orthogonalEdgeStyle;rounded=0;orthogonalLoop=1;jettySize=auto;html=1;" edge="1" parent="1" source="ylWSoLD5zjmZtmUcnuAS-12">
          <mxGeometry relative="1" as="geometry">
            <mxPoint x="400" y="490" as="targetPoint" />
          </mxGeometry>
        </mxCell>
        <mxCell id="ylWSoLD5zjmZtmUcnuAS-12" value="Staging Area" style="text;html=1;strokeColor=none;fillColor=none;align=left;verticalAlign=middle;whiteSpace=wrap;rounded=0;fontSize=15;fontStyle=1" vertex="1" parent="1">
          <mxGeometry x="320" y="400" width="100" height="30" as="geometry" />
        </mxCell>
        <mxCell id="ylWSoLD5zjmZtmUcnuAS-13" value="Data Warehouse" style="text;html=1;strokeColor=none;fillColor=none;align=center;verticalAlign=middle;whiteSpace=wrap;rounded=0;fontSize=15;fontStyle=1" vertex="1" parent="1">
          <mxGeometry x="400" y="280" width="130" height="30" as="geometry" />
        </mxCell>
        <mxCell id="ylWSoLD5zjmZtmUcnuAS-14" value="Data Integration Layer" style="text;html=1;strokeColor=none;fillColor=none;align=left;verticalAlign=middle;whiteSpace=wrap;rounded=0;fontSize=15;fontStyle=1" vertex="1" parent="1">
          <mxGeometry x="320" y="500" width="170" height="30" as="geometry" />
        </mxCell>
        <mxCell id="ylWSoLD5zjmZtmUcnuAS-15" value="Data Storage Layer" style="text;html=1;strokeColor=none;fillColor=none;align=left;verticalAlign=middle;whiteSpace=wrap;rounded=0;fontSize=15;fontStyle=1" vertex="1" parent="1">
          <mxGeometry x="320" y="540" width="140" height="30" as="geometry" />
        </mxCell>
        <mxCell id="ylWSoLD5zjmZtmUcnuAS-16" value="Access and Query Layer" style="text;html=1;strokeColor=none;fillColor=none;align=left;verticalAlign=middle;whiteSpace=wrap;rounded=0;fontSize=15;fontStyle=1" vertex="1" parent="1">
          <mxGeometry x="320" y="590" width="180" height="30" as="geometry" />
        </mxCell>
        <mxCell id="ylWSoLD5zjmZtmUcnuAS-17" value="User" style="shape=umlActor;verticalLabelPosition=bottom;verticalAlign=top;html=1;outlineConnect=0;" vertex="1" parent="1">
          <mxGeometry x="1050" y="240" width="90" height="180" as="geometry" />
        </mxCell>
        <mxCell id="ylWSoLD5zjmZtmUcnuAS-18" value="&lt;font style=&quot;font-size: 15px;&quot;&gt;Tableau&lt;/font&gt;" style="text;html=1;strokeColor=none;fillColor=none;align=left;verticalAlign=middle;whiteSpace=wrap;rounded=0;fontSize=15;fontStyle=1" vertex="1" parent="1">
          <mxGeometry x="680" y="515.5" width="110" height="30" as="geometry" />
        </mxCell>
        <mxCell id="ylWSoLD5zjmZtmUcnuAS-22" value="" style="image;sketch=0;aspect=fixed;html=1;points=[];align=center;fontSize=12;image=img/lib/mscae/Shared_Dashboard.svg;" vertex="1" parent="1">
          <mxGeometry x="810" y="315" width="87.2" height="71.5" as="geometry" />
        </mxCell>
        <mxCell id="ylWSoLD5zjmZtmUcnuAS-23" value="" style="sketch=0;pointerEvents=1;shadow=0;dashed=0;html=1;strokeColor=none;fillColor=#505050;labelPosition=center;verticalLabelPosition=bottom;verticalAlign=top;outlineConnect=0;align=center;shape=mxgraph.office.sites.excel_services;" vertex="1" parent="1">
          <mxGeometry x="830" y="181" width="60" height="49" as="geometry" />
        </mxCell>
        <mxCell id="ylWSoLD5zjmZtmUcnuAS-24" value="" style="sketch=0;pointerEvents=1;shadow=0;dashed=0;html=1;strokeColor=none;labelPosition=center;verticalLabelPosition=bottom;verticalAlign=top;outlineConnect=0;align=center;shape=mxgraph.office.servers.server_generic;fillColor=#7FBA42;" vertex="1" parent="1">
          <mxGeometry x="551" y="295" width="27" height="52" as="geometry" />
        </mxCell>
        <mxCell id="ylWSoLD5zjmZtmUcnuAS-25" value="" style="image;html=1;image=img/lib/clip_art/finance/Graph_128x128.png" vertex="1" parent="1">
          <mxGeometry x="810" y="475" width="80" height="80" as="geometry" />
        </mxCell>
        <mxCell id="ylWSoLD5zjmZtmUcnuAS-31" value="Interactive dashboards and visualizations&amp;nbsp;" style="text;html=1;strokeColor=none;fillColor=none;align=left;verticalAlign=middle;whiteSpace=wrap;rounded=0;fontSize=15;fontStyle=1" vertex="1" parent="1">
          <mxGeometry x="680" y="335.75" width="130" height="30" as="geometry" />
        </mxCell>
        <mxCell id="ylWSoLD5zjmZtmUcnuAS-32" value="" style="image;sketch=0;aspect=fixed;html=1;points=[];align=center;fontSize=12;image=img/lib/mscae/SQL_Servers.svg;" vertex="1" parent="1">
          <mxGeometry x="835" y="240" width="50" height="50" as="geometry" />
        </mxCell>
        <mxCell id="ylWSoLD5zjmZtmUcnuAS-36" value="Access to a query language (such as SQL) or a visual query builder&amp;nbsp;" style="text;html=1;strokeColor=none;fillColor=none;align=left;verticalAlign=middle;whiteSpace=wrap;rounded=0;fontSize=15;fontStyle=1" vertex="1" parent="1">
          <mxGeometry x="680" y="195" width="140" height="40" as="geometry" />
        </mxCell>
        <mxCell id="ylWSoLD5zjmZtmUcnuAS-41" value="" style="endArrow=classic;html=1;rounded=0;" edge="1" parent="1">
          <mxGeometry width="50" height="50" relative="1" as="geometry">
            <mxPoint x="1000" y="200" as="sourcePoint" />
            <mxPoint x="920" y="200" as="targetPoint" />
          </mxGeometry>
        </mxCell>
        <mxCell id="ylWSoLD5zjmZtmUcnuAS-42" value="" style="endArrow=none;html=1;rounded=0;" edge="1" parent="1">
          <mxGeometry width="50" height="50" relative="1" as="geometry">
            <mxPoint x="1000" y="520" as="sourcePoint" />
            <mxPoint x="1000" y="194.25" as="targetPoint" />
          </mxGeometry>
        </mxCell>
        <mxCell id="ylWSoLD5zjmZtmUcnuAS-43" value="" style="endArrow=classic;html=1;rounded=0;" edge="1" parent="1">
          <mxGeometry width="50" height="50" relative="1" as="geometry">
            <mxPoint x="1040" y="340" as="sourcePoint" />
            <mxPoint x="920" y="340" as="targetPoint" />
          </mxGeometry>
        </mxCell>
        <mxCell id="ylWSoLD5zjmZtmUcnuAS-44" value="" style="endArrow=classic;html=1;rounded=0;" edge="1" parent="1">
          <mxGeometry width="50" height="50" relative="1" as="geometry">
            <mxPoint x="1000" y="516" as="sourcePoint" />
            <mxPoint x="920" y="516" as="targetPoint" />
          </mxGeometry>
        </mxCell>
        <mxCell id="ylWSoLD5zjmZtmUcnuAS-46" value="" style="endArrow=none;html=1;rounded=0;" edge="1" parent="1">
          <mxGeometry width="50" height="50" relative="1" as="geometry">
            <mxPoint x="670" y="560" as="sourcePoint" />
            <mxPoint x="670" y="205" as="targetPoint" />
          </mxGeometry>
        </mxCell>
        <mxCell id="ylWSoLD5zjmZtmUcnuAS-47" value="" style="endArrow=classic;html=1;rounded=0;entryX=1;entryY=0.5;entryDx=0;entryDy=0;" edge="1" parent="1" target="ylWSoLD5zjmZtmUcnuAS-16">
          <mxGeometry width="50" height="50" relative="1" as="geometry">
            <mxPoint x="670" y="400" as="sourcePoint" />
            <mxPoint x="600" y="560" as="targetPoint" />
            <Array as="points">
              <mxPoint x="600" y="400" />
              <mxPoint x="600" y="480" />
              <mxPoint x="600" y="605" />
            </Array>
          </mxGeometry>
        </mxCell>
        <mxCell id="ylWSoLD5zjmZtmUcnuAS-48" value="" style="endArrow=none;html=1;rounded=0;" edge="1" parent="1">
          <mxGeometry width="50" height="50" relative="1" as="geometry">
            <mxPoint x="670" y="280" as="sourcePoint" />
            <mxPoint x="800" y="280" as="targetPoint" />
          </mxGeometry>
        </mxCell>
        <mxCell id="ylWSoLD5zjmZtmUcnuAS-49" value="" style="endArrow=none;html=1;rounded=0;" edge="1" parent="1">
          <mxGeometry width="50" height="50" relative="1" as="geometry">
            <mxPoint x="673.6" y="553.8199999999999" as="sourcePoint" />
            <mxPoint x="778.6" y="554" as="targetPoint" />
          </mxGeometry>
        </mxCell>
        <mxCell id="ylWSoLD5zjmZtmUcnuAS-50" value="" style="endArrow=none;html=1;rounded=0;" edge="1" parent="1">
          <mxGeometry width="50" height="50" relative="1" as="geometry">
            <mxPoint x="675" y="386.5" as="sourcePoint" />
            <mxPoint x="795" y="386.5" as="targetPoint" />
          </mxGeometry>
        </mxCell>
        <mxCell id="ylWSoLD5zjmZtmUcnuAS-52" value="" style="endArrow=none;html=1;rounded=0;" edge="1" parent="1">
          <mxGeometry width="50" height="50" relative="1" as="geometry">
            <mxPoint x="250" y="720" as="sourcePoint" />
            <mxPoint x="250" y="160" as="targetPoint" />
          </mxGeometry>
        </mxCell>
        <mxCell id="ylWSoLD5zjmZtmUcnuAS-53" value="" style="endArrow=classic;html=1;rounded=0;entryX=0.25;entryY=0;entryDx=0;entryDy=0;" edge="1" parent="1" target="ylWSoLD5zjmZtmUcnuAS-12">
          <mxGeometry width="50" height="50" relative="1" as="geometry">
            <mxPoint x="250" y="350" as="sourcePoint" />
            <mxPoint x="205.82" y="414" as="targetPoint" />
            <Array as="points">
              <mxPoint x="310" y="350" />
            </Array>
          </mxGeometry>
        </mxCell>
        <mxCell id="ylWSoLD5zjmZtmUcnuAS-55" value="" style="endArrow=none;html=1;rounded=0;" edge="1" parent="1">
          <mxGeometry width="50" height="50" relative="1" as="geometry">
            <mxPoint x="130" y="220" as="sourcePoint" />
            <mxPoint x="250" y="220" as="targetPoint" />
          </mxGeometry>
        </mxCell>
        <mxCell id="ylWSoLD5zjmZtmUcnuAS-56" value="" style="endArrow=none;html=1;rounded=0;" edge="1" parent="1">
          <mxGeometry width="50" height="50" relative="1" as="geometry">
            <mxPoint x="130" y="400" as="sourcePoint" />
            <mxPoint x="250" y="400" as="targetPoint" />
          </mxGeometry>
        </mxCell>
        <mxCell id="ylWSoLD5zjmZtmUcnuAS-57" value="" style="endArrow=none;html=1;rounded=0;" edge="1" parent="1">
          <mxGeometry width="50" height="50" relative="1" as="geometry">
            <mxPoint x="-40" y="604.41" as="sourcePoint" />
            <mxPoint x="250" y="604" as="targetPoint" />
          </mxGeometry>
        </mxCell>
        <mxCell id="ylWSoLD5zjmZtmUcnuAS-58" value="" style="endArrow=none;html=1;rounded=0;exitX=0.25;exitY=1;exitDx=0;exitDy=0;" edge="1" parent="1" source="ylWSoLD5zjmZtmUcnuAS-4">
          <mxGeometry width="50" height="50" relative="1" as="geometry">
            <mxPoint x="-40" y="724.23" as="sourcePoint" />
            <mxPoint x="250" y="723.8199999999999" as="targetPoint" />
          </mxGeometry>
        </mxCell>
      </root>
    </mxGraphModel>
  </diagram>
</mxfile>
